<svg width="143.680664" height="19.000000" viewBox="0 0 143.681 19" fill="none" xmlns="http://www.w3.org/2000/svg" xmlns:xlink="http://www.w3.org/1999/xlink">
	<desc>
			Created with Pixso.
	</desc>
	<defs/>
	<path id="Vector" d="M5.52 0L13.48 0C16.93 0 19 2.05 19 5.49L19 5.51L19 13.48C19 16.93 16.93 19 13.47 19L5.52 19C2.06 19 0 16.93 0 13.47L0 5.51C0 2.06 2.06 0 5.52 0ZM43.12 11.62L41.92 12.8L41.92 15L39.42 15L39.42 3.12L41.92 3.12L41.92 9.84L45.56 6.39L50.78 6.39L53.19 12.23L55.63 6.39L58.03 6.39L54.14 15.52C53.74 16.52 53.25 17.21 52.67 17.62C52.09 18.02 51.39 18.23 50.57 18.23C50.12 18.23 49.68 18.16 49.24 18.02C48.81 17.88 48.45 17.69 48.17 17.44L49.08 15.67C49.27 15.84 49.49 15.97 49.74 16.07C50 16.16 50.25 16.21 50.49 16.21C50.83 16.21 51.11 16.13 51.32 15.96C51.54 15.8 51.73 15.52 51.9 15.14L51.93 15.06L48.31 6.63L44.96 10.04L48.86 15L45.84 15L43.12 11.62ZM118.41 3.12L120.9 3.12L120.9 15L118.41 15L118.41 3.12ZM123.22 3.12L125.71 3.12L125.71 15L123.22 15L123.22 3.12ZM33.07 15.19C32.19 15.19 31.33 15.07 30.5 14.84C29.68 14.59 29.01 14.28 28.51 13.89L29.39 11.94C29.87 12.29 30.44 12.57 31.11 12.79C31.77 13 32.43 13.11 33.09 13.11C33.83 13.11 34.37 13 34.72 12.79C35.07 12.56 35.25 12.27 35.25 11.91C35.25 11.64 35.14 11.42 34.93 11.25C34.73 11.07 34.46 10.93 34.13 10.82C33.81 10.71 33.37 10.6 32.82 10.47C31.96 10.26 31.27 10.06 30.72 9.86Q30.41 9.74 30.13 9.57L30.13 9.57Q29.68 9.3 29.31 8.88C28.93 8.43 28.74 7.84 28.74 7.09C28.74 6.44 28.91 5.85 29.27 5.33Q29.79 4.53 30.85 4.07C31.56 3.76 32.43 3.6 33.46 3.6C34.17 3.6 34.87 3.69 35.55 3.86C36.24 4.03 36.83 4.28 37.35 4.6L36.55 6.56C35.51 5.98 34.48 5.68 33.44 5.68C32.72 5.68 32.18 5.8 31.83 6.04Q31.52 6.24 31.4 6.53Q31.31 6.72 31.31 6.96C31.31 7.35 31.51 7.63 31.91 7.83C32.31 8.01 32.92 8.19 33.75 8.37C34.6 8.57 35.3 8.78 35.84 8.98C36.39 9.18 36.85 9.5 37.23 9.94C37.63 10.38 37.83 10.97 37.83 11.72C37.83 12.36 37.64 12.94 37.28 13.48C36.93 14 36.4 14.41 35.68 14.72C34.97 15.03 34.1 15.19 33.07 15.19ZM107.9 3.8L104.24 15L101.45 15L98.99 7.41L96.44 15L93.68 15L90 3.8L92.68 3.8L95.21 11.67L97.85 3.8L100.25 3.8L102.81 11.73L105.42 3.8L107.9 3.8ZM10.82 14.62C11.09 14.62 11.3 14.42 11.3 14.15L11.31 14.15L11.31 5.45C11.31 4.85 10.82 4.37 10.22 4.37L8.78 4.37C8.18 4.37 7.69 4.85 7.69 5.45L7.69 14.15C7.69 14.42 7.9 14.62 8.17 14.62L10.82 14.62ZM143.68 14.58C143.43 14.76 143.13 14.9 142.76 15C142.41 15.08 142.04 15.12 141.64 15.12C140.62 15.12 139.83 14.86 139.26 14.34C138.71 13.82 138.43 13.05 138.43 12.04L138.43 8.5L137.1 8.5L137.1 6.58L138.43 6.58L138.43 4.48L140.92 4.48L140.92 6.58L143.07 6.58L143.07 8.5L140.92 8.5L140.92 12C140.92 12.37 141.01 12.65 141.2 12.85C141.39 13.04 141.65 13.14 142 13.14C142.39 13.14 142.73 13.03 143 12.82L143.68 14.58ZM64.13 6.26Q65.02 6.26 65.78 6.56Q66.05 6.67 66.31 6.82Q66.74 7.06 67.1 7.38Q67.55 7.8 67.86 8.37C68.23 9.03 68.42 9.81 68.42 10.69C68.42 11.58 68.23 12.36 67.86 13.03C67.49 13.69 66.97 14.21 66.31 14.58Q66.09 14.7 65.86 14.79L65.86 14.79Q65.07 15.12 64.13 15.12C63.03 15.12 62.17 14.78 61.54 14.08L61.54 18.1L59.05 18.1L59.05 6.39L61.43 6.39L61.43 7.38Q61.65 7.11 61.92 6.91Q62.78 6.26 64.13 6.26ZM72.48 7.52C72.77 7.11 73.18 6.79 73.68 6.58C74.19 6.37 74.77 6.26 75.44 6.26L75.44 8.56Q75.02 8.53 74.88 8.53C74.16 8.53 73.6 8.73 73.2 9.14Q73.19 9.15 73.18 9.15Q72.59 9.75 72.59 10.93L72.59 15L70.09 15L70.09 6.39L72.48 6.39L72.48 7.52ZM80.94 15.12C80.03 15.12 79.22 14.94 78.49 14.56C77.78 14.18 77.22 13.65 76.81 12.98Q76.68 12.76 76.58 12.53L76.58 12.53Q76.2 11.7 76.2 10.69Q76.2 9.69 76.58 8.85L76.58 8.85Q76.68 8.62 76.81 8.4C77.22 7.73 77.78 7.21 78.49 6.84C79.22 6.45 80.03 6.26 80.94 6.26C81.85 6.26 82.66 6.45 83.37 6.84C84.08 7.21 84.64 7.73 85.05 8.4Q85.18 8.62 85.28 8.85L85.28 8.85Q85.66 9.69 85.66 10.69Q85.66 11.7 85.28 12.53L85.28 12.53Q85.18 12.76 85.05 12.98C84.64 13.65 84.08 14.18 83.37 14.56C82.66 14.94 81.85 15.12 80.94 15.12ZM112 6.26C113.34 6.26 114.36 6.58 115.07 7.22C115.79 7.85 116.15 8.8 116.15 10.08L116.15 15L113.81 15L113.81 13.92C113.34 14.72 112.47 15.12 111.19 15.12C110.52 15.12 109.95 15.01 109.46 14.79C108.98 14.56 108.61 14.25 108.35 13.86C108.1 13.46 107.97 13.02 107.97 12.52C107.97 11.72 108.27 11.09 108.87 10.63C109.47 10.17 110.41 9.94 111.67 9.94L113.65 9.94C113.65 9.39 113.48 8.98 113.15 8.69C112.82 8.39 112.33 8.24 111.67 8.24C111.21 8.24 110.75 8.32 110.31 8.47C109.87 8.61 109.5 8.8 109.19 9.04L108.29 7.3C108.76 6.97 109.32 6.71 109.97 6.53C110.63 6.35 111.31 6.26 112 6.26ZM136.46 10.72C136.46 10.76 136.45 10.98 136.41 11.39L129.9 11.39C130.02 11.93 130.3 12.35 130.73 12.66C131.17 12.97 131.72 13.12 132.37 13.12C132.81 13.12 133.21 13.06 133.55 12.93C133.9 12.79 134.23 12.58 134.53 12.29L135.85 13.73C135.04 14.66 133.86 15.12 132.3 15.12C131.33 15.12 130.47 14.94 129.73 14.56C128.98 14.18 128.4 13.65 128 12.98C127.59 12.31 127.39 11.54 127.39 10.69C127.39 9.85 127.59 9.09 127.98 8.42C128.39 7.74 128.94 7.21 129.63 6.84C130.33 6.45 131.12 6.26 131.98 6.26Q133.07 6.26 133.97 6.66Q134.12 6.73 134.27 6.8C134.95 7.17 135.49 7.69 135.87 8.37C136.27 9.04 136.46 9.83 136.46 10.72ZM132 8.15C131.43 8.15 130.96 8.31 130.57 8.63C130.19 8.95 129.96 9.38 129.87 9.94L134.11 9.94C134.02 9.39 133.79 8.96 133.41 8.64C133.02 8.31 132.55 8.15 132 8.15ZM63.7 13.08C64.34 13.08 64.86 12.86 65.27 12.43Q65.38 12.31 65.48 12.18L65.48 12.18Q65.89 11.58 65.89 10.69C65.89 9.97 65.69 9.39 65.27 8.96Q65.03 8.71 64.74 8.55Q64.29 8.31 63.7 8.31Q63.13 8.31 62.68 8.54Q62.37 8.7 62.12 8.96Q62.03 9.06 61.95 9.16L61.95 9.16Q61.51 9.76 61.51 10.69Q61.51 11.61 61.94 12.22Q62.02 12.33 62.12 12.43Q62.36 12.68 62.64 12.83L62.64 12.83Q63.11 13.08 63.7 13.08ZM80.94 13.08C81.58 13.08 82.1 12.86 82.51 12.43C82.92 12 83.13 11.42 83.13 10.69C83.13 9.97 82.92 9.39 82.51 8.96C82.1 8.53 81.58 8.31 80.94 8.31Q80.37 8.31 79.92 8.54Q79.61 8.7 79.35 8.96C78.94 9.39 78.73 9.97 78.73 10.69C78.73 11.42 78.94 12 79.35 12.43Q79.59 12.68 79.88 12.83Q80.35 13.08 80.94 13.08ZM6.28 14.62C6.54 14.62 6.75 14.42 6.75 14.15L6.75 9.15C6.75 8.89 6.54 8.68 6.28 8.68L4.23 8.68C3.64 8.68 3.15 9.16 3.15 9.76L3.15 14.15C3.15 14.42 3.36 14.62 3.63 14.62L6.28 14.62ZM15.37 14.62C15.64 14.62 15.85 14.42 15.85 14.15L15.85 11.39C15.85 10.79 15.36 10.3 14.77 10.3L12.72 10.3C12.46 10.3 12.25 10.51 12.25 10.78L12.25 14.15C12.25 14.42 12.46 14.62 12.72 14.62L15.37 14.62ZM111.81 13.44C112.24 13.44 112.62 13.35 112.95 13.15C113.28 12.95 113.51 12.66 113.65 12.28L113.65 11.39L111.94 11.39Q110.86 11.39 110.54 11.89Q110.4 12.1 110.4 12.4C110.4 12.72 110.52 12.98 110.77 13.17C111.03 13.35 111.37 13.44 111.81 13.44ZM88.16 15.12C87.72 15.12 87.36 14.97 87.06 14.67C86.76 14.38 86.61 14 86.61 13.56C86.61 13.1 86.76 12.73 87.06 12.45C87.36 12.16 87.72 12.02 88.16 12.02C88.6 12.02 88.97 12.16 89.27 12.45C89.56 12.73 89.71 13.1 89.71 13.56C89.71 14 89.56 14.38 89.27 14.67C88.97 14.97 88.6 15.12 88.16 15.12Z" fill="#000000" fill-opacity="1.000000" fill-rule="evenodd"/>
</svg>
